<svg xmlns="http://www.w3.org/2000/svg" viewBox="0 0 120 120" width="100%" height="100%">
  <rect x="5" y="5" width="110" height="110" rx="24" fill="#0077B5" />

  <path d="M 45 35 V 28 C 45 23 49 19 54 19 h 12 C 71 19 75 23 75 28 V 35" 
        fill="none" stroke="#ffffff" stroke-width="6" stroke-linecap="round" />

  <rect x="22" y="34" width="76" height="52" rx="6" fill="#ffffff" />

  <path d="M 21 52 Q 60 68 99 52" fill="none" stroke="#0077B5" stroke-width="3" />

  <rect x="54" y="53" width="12" height="14" rx="3" fill="#0077B5" />

  <g transform="translate(68, 58)">
    <circle cx="16" cy="20" r="16" fill="#0077B5" />
    
    <circle cx="15" cy="17" r="7" fill="none" stroke="#ffffff" stroke-width="3" />
    <line x1="21" y1="23" x2="28" y2="30" stroke="#ffffff" stroke-width="4" stroke-linecap="round" />
    
    <line x1="32" y1="17" x2="32" y2="27" stroke="#ffffff" stroke-width="3" stroke-linecap="round" />
    <line x1="27" y1="22" x2="37.5" y2="22" stroke="#ffffff" stroke-width="3" stroke-linecap="round" />
  </g>
</svg>